# xmcd CD database file
# 
# Track frame offsets:
# 	150
# 	9066
# 	17180
# 	25191
# 	36839
# 	45431
# 	53201
# 	62845
# 	74176
# 	85036
# 	94624
# 	102623
# 	113774
# 	123702
# 	133165
# 	143121
# 	153839
# 	165596
# 	175218
# 	186293
# 
# Disc length: 2627 seconds
# 
# Submitted via: Nero 5.5.8.2
# 
# Revision: 0
# Processed by: cddbd v1.4PL0 Copyright (c) Steve Scherf et al.
#
DISCID=100a4114
DTITLE=Buck Owens And His Buckaroos - The Instrumental Hits of Buck Owens
DYEAR=1900
DGENRE=
TTITLE0=The Instrumental Hits of Buck Owens
TTITLE1=The Instrumental Hits of Buck Owens
TTITLE2=The Instrumental Hits of Buck Owens
TTITLE3=The Instrumental Hits of Buck Owens
TTITLE4=The Instrumental Hits of Buck Owens
TTITLE5=The Instrumental Hits of Buck Owens
TTITLE6=The Instrumental Hits of Buck Owens
TTITLE7=The Instrumental Hits of Buck Owens
TTITLE8=The Instrumental Hits of Buck Owens
TTITLE9=The Instrumental Hits of Buck Owens
TTITLE10=The Instrumental Hits of Buck Owens
TTITLE11=The Instrumental Hits of Buck Owens
TTITLE12=The Instrumental Hits of Buck Owens
TTITLE13=The Instrumental Hits of Buck Owens
TTITLE14=The Instrumental Hits of Buck Owens
TTITLE15=The Instrumental Hits of Buck Owens
TTITLE16=The Instrumental Hits of Buck Owens
TTITLE17=The Instrumental Hits of Buck Owens
TTITLE18=The Instrumental Hits of Buck Owens
TTITLE19=The Instrumental Hits of Buck Owens
EXTD=Remaster
EXTT0=Remaster
EXTT1=Remaster
EXTT2=Remaster
EXTT3=Remaster
EXTT4=Remaster
EXTT5=Remaster
EXTT6=Remaster
EXTT7=Remaster
EXTT8=Remaster
EXTT9=Remaster
EXTT10=Remaster
EXTT11=Remaster
EXTT12=Remaster
EXTT13=Remaster
EXTT14=Remaster
EXTT15=Remaster
EXTT16=Remaster
EXTT17=Remaster
EXTT18=Remaster
EXTT19=Remaster
PLAYORDER=
